<?xml version="1.0" encoding="utf-8"?>
<!-- Generator: Adobe Illustrator 16.0.0, SVG Export Plug-In . SVG Version: 6.00 Build 0)  -->
<!DOCTYPE svg PUBLIC "-//W3C//DTD SVG 1.1//EN" "http://www.w3.org/Graphics/SVG/1.1/DTD/svg11.dtd">
<svg version="1.1" id="Layer_1" xmlns="http://www.w3.org/2000/svg" xmlns:xlink="http://www.w3.org/1999/xlink" x="0px" y="0px"
	 width="306.927px" height="94.064px" viewBox="0 0 306.927 94.064" enable-background="new 0 0 306.927 94.064"
	 xml:space="preserve">
<g>
	<g>
		<path fill="#00FFFF" d="M229.508,74.387c0,6.908-5.128,12.211-11.862,12.211h-9.77V62.175h9.77
			C224.38,62.175,229.508,67.479,229.508,74.387z M224.136,74.387c0-4.188-2.651-6.84-6.49-6.84h-4.187v13.678h4.187
			C221.484,81.225,224.136,78.572,224.136,74.387z"/>
		<path fill="#00FFFF" d="M231.078,64.478c0-1.711,1.431-3.14,3.141-3.14c1.709,0,3.14,1.429,3.14,3.14
			c0,1.708-1.431,3.141-3.14,3.141C232.509,67.618,231.078,66.186,231.078,64.478z M231.603,69.152h5.231v17.445h-5.231V69.152z"/>
		<path fill="#00FFFF" d="M257.7,69.152v16.573c0,5.862-4.572,8.339-9.212,8.339c-3.63,0-6.666-1.361-8.27-4.222l4.466-2.583
			c0.662,1.222,1.675,2.199,3.978,2.199c2.442,0,3.941-1.257,3.941-3.733V84.12c-1.15,1.431-2.824,2.268-5.092,2.268
			c-4.955,0-8.583-4.047-8.583-8.861c0-4.816,3.628-8.862,8.583-8.862c2.268,0,3.941,0.837,5.092,2.268v-1.779H257.7z
			 M252.604,77.526c0-2.409-1.743-4.048-4.222-4.048c-2.476,0-4.221,1.639-4.221,4.048c0,2.407,1.745,4.047,4.221,4.047
			C250.86,81.573,252.604,79.934,252.604,77.526z"/>
		<path fill="#00FFFF" d="M260.141,64.478c0-1.711,1.431-3.14,3.141-3.14c1.709,0,3.14,1.429,3.14,3.14
			c0,1.708-1.431,3.141-3.14,3.141C261.571,67.618,260.141,66.186,260.141,64.478z M260.665,69.152h5.231v17.445h-5.231V69.152z"/>
		<path fill="#00FFFF" d="M275.49,74.178v6.174c0,1.501,1.293,1.641,3.596,1.501v4.745c-6.84,0.698-8.827-1.36-8.827-6.246v-6.174
			h-2.792v-5.025h2.792v-3.315l5.231-1.568v4.884h3.596v5.025H275.49z"/>
		<path fill="#00FFFF" d="M298.728,69.152v17.445h-5.233v-1.641c-1.15,1.328-2.86,2.13-5.197,2.13c-4.572,0-8.341-4.013-8.341-9.212
			c0-5.198,3.769-9.211,8.341-9.211c2.337,0,4.047,0.804,5.197,2.128v-1.64H298.728z M293.494,77.875
			c0-2.617-1.744-4.257-4.151-4.257c-2.409,0-4.152,1.64-4.152,4.257c0,2.616,1.743,4.257,4.152,4.257
			C291.75,82.132,293.494,80.491,293.494,77.875z"/>
		<path fill="#00FFFF" d="M301.692,61.127h5.234v25.471h-5.234V61.127z"/>
	</g>
	<g>
		<path fill="#00FFFF" d="M12.386,26.902c0,1.881,0.305,3.683,0.917,5.409c0.612,1.726,1.497,3.254,2.653,4.586
			c1.158,1.333,2.557,2.402,4.195,3.209c1.638,0.811,3.505,1.212,5.602,1.212c2.184,0,4.095-0.447,5.735-1.342
			c1.638-0.895,2.991-2.041,4.062-3.439c1.071-1.398,1.877-2.928,2.426-4.587c0.543-1.662,0.819-3.279,0.819-4.851
			c0-1.572-0.275-3.197-0.819-4.881c-0.548-1.683-1.355-3.234-2.426-4.654c-1.07-1.417-2.436-2.576-4.095-3.473
			c-1.662-0.896-3.605-1.342-5.833-1.342c-2.139,0-4.04,0.414-5.699,1.245c-1.662,0.829-3.048,1.924-4.164,3.276
			c-1.113,1.354-1.956,2.874-2.52,4.555C12.669,23.507,12.386,25.199,12.386,26.902 M1.901,17.271
			c0.655-1.573,1.616-3.253,2.882-5.045c1.268-1.792,2.873-3.462,4.817-5.013c1.943-1.55,4.237-2.83,6.88-3.833
			c2.644-1.005,5.668-1.508,9.075-1.508c3.713,0,7.144,0.679,10.288,2.032c3.147,1.354,5.854,3.178,8.127,5.472
			c2.271,2.293,4.04,4.971,5.308,8.028c1.265,3.058,1.9,6.269,1.9,9.632c0,3.365-0.635,6.576-1.9,9.634
			c-1.269,3.058-3.038,5.733-5.308,8.027c-2.273,2.292-4.98,4.118-8.127,5.471c-3.144,1.354-6.597,2.032-10.353,2.032
			c-3.8,0-7.274-0.699-10.419-2.1c-3.146-1.396-5.831-3.242-8.06-5.536C4.783,42.27,3.057,39.649,1.835,36.7
			C0.612,33.751,0,30.727,0,27.624c0-1.615,0.131-3.297,0.394-5.044C0.656,20.833,1.158,19.064,1.901,17.271"/>
		<path fill="#00FFFF" d="M91.085,51.28H80.797v-3.867h-0.13c-0.568,1.179-1.245,2.099-2.032,2.756
			c-0.786,0.653-1.616,1.154-2.49,1.504c-0.875,0.351-1.738,0.569-2.587,0.655c-0.854,0.088-1.63,0.132-2.327,0.132
			c-0.568,0-1.29-0.044-2.162-0.132c-0.876-0.086-1.813-0.294-2.82-0.621c-1.005-0.328-2.008-0.797-3.013-1.408
			s-1.901-1.42-2.686-2.425c-0.745-0.917-1.323-1.779-1.737-2.588c-0.415-0.809-0.743-1.64-0.983-2.491
			c-0.24-0.852-0.393-1.771-0.458-2.75c-0.065-0.984-0.099-2.109-0.099-3.377V14.911H68.15v20.118c0,0.613,0.034,1.344,0.1,2.197
			c0.065,0.85,0.271,1.648,0.622,2.391c0.35,0.744,0.927,1.377,1.736,1.901c0.809,0.523,1.935,0.785,3.376,0.785
			c0.787,0,1.549-0.12,2.294-0.36c0.741-0.24,1.407-0.632,1.998-1.179c0.588-0.545,1.058-1.299,1.409-2.261
			c0.348-0.959,0.522-2.162,0.522-3.605V14.911h10.879V51.28z"/>
		<path fill="#00FFFF" d="M109.826,51.28H98.948V14.914h10.878V51.28z M109.826,11.046H98.948V0.168h10.878V11.046z"/>
		<path fill="#00FFFF" d="M154.386,37.456c-0.481,2.052-1.29,3.997-2.424,5.832c-1.139,1.833-2.524,3.428-4.162,4.782
			c-1.639,1.355-3.517,2.424-5.635,3.21c-2.12,0.787-4.402,1.182-6.848,1.182c-2.752,0-5.315-0.504-7.692-1.51
			c-2.375-1.002-4.42-2.392-6.136-4.16c-1.716-1.771-3.072-3.833-4.071-6.193c-0.999-2.36-1.499-4.89-1.499-7.602
			c0-2.663,0.49-5.175,1.466-7.534c0.976-2.36,2.323-4.414,4.037-6.161c1.717-1.747,3.739-3.122,6.072-4.128
			c2.332-1.005,4.851-1.505,7.559-1.505c2.402,0,4.676,0.382,6.816,1.146c2.14,0.764,4.052,1.813,5.733,3.146
			c1.682,1.333,3.103,2.936,4.26,4.814c1.158,1.878,1.977,3.932,2.457,6.161h-11.009c-0.305-0.611-0.677-1.222-1.113-1.835
			c-0.439-0.61-0.962-1.157-1.573-1.637c-0.612-0.48-1.344-0.875-2.194-1.179c-0.854-0.307-1.846-0.459-2.982-0.459
			c-1.31-0.044-2.491,0.163-3.54,0.622c-1.047,0.46-1.955,1.104-2.718,1.934c-0.765,0.832-1.355,1.825-1.771,2.981
			c-0.414,1.158-0.622,2.391-0.622,3.704c0,1.311,0.208,2.533,0.622,3.669c0.416,1.137,1.006,2.119,1.771,2.95
			c0.763,0.829,1.671,1.473,2.718,1.932c1.049,0.458,2.229,0.688,3.54,0.688c1.136,0,2.129-0.152,2.982-0.458
			c0.851-0.307,1.583-0.689,2.194-1.147c0.611-0.459,1.134-0.974,1.573-1.54c0.436-0.568,0.808-1.137,1.113-1.703H154.386z"/>
		<path fill="#00FFFF" d="M205.622,23.168h-4.066v-8.257h4.066v-3.774c0-2.532,0.467-4.541,1.408-6.027
			c0.938-1.485,2.118-2.613,3.54-3.376c1.415-0.763,2.936-1.244,4.552-1.44C216.739,0.097,218.203,0,219.514,0h1.571v8.255h-1.244
			c-0.221,0-0.526,0.032-0.92,0.098c-0.392,0.065-0.764,0.215-1.11,0.453c-0.351,0.237-0.659,0.571-0.918,1
			c-0.263,0.431-0.396,2.91-0.396,3.684v1.421h4.589v8.257h-4.589V51.28h-10.874V23.168z"/>
		<path fill="#00FFFF" d="M238.318,51.28h-10.879V14.914h10.879V51.28z M238.318,11.046h-10.879V0.168h10.879V11.046z"/>
		<path fill="#00FFFF" d="M246.116,14.911h10.223v3.868h0.131c0.218-0.436,0.524-0.95,0.918-1.541
			c0.395-0.591,0.927-1.148,1.604-1.672c0.677-0.523,1.551-0.971,2.623-1.343c1.067-0.37,2.39-0.555,3.965-0.555V24.61
			c-1.27,0.043-2.428,0.154-3.474,0.328c-1.05,0.174-1.956,0.504-2.722,0.983c-0.766,0.481-1.354,1.158-1.77,2.031
			c-0.412,0.876-0.621,1.99-0.621,3.343V51.28h-10.878V14.911z"/>
		<path fill="#00FFFF" d="M296.051,29.066c-0.131-0.524-0.362-1.147-0.688-1.867c-0.327-0.72-0.82-1.409-1.476-2.065
			c-0.655-0.653-1.486-1.2-2.49-1.638c-1.006-0.436-2.207-0.653-3.604-0.653c-1.398,0-2.6,0.217-3.604,0.653
			c-1.006,0.438-1.837,0.985-2.49,1.638c-0.655,0.656-1.147,1.345-1.476,2.065c-0.327,0.72-0.556,1.343-0.688,1.867H296.051z
			 M305.682,39.878c-0.874,2.054-1.943,3.856-3.211,5.405c-1.269,1.551-2.666,2.851-4.194,3.901
			c-3.058,2.182-6.509,3.275-10.352,3.275c-2.621,0-5.091-0.492-7.407-1.476c-2.314-0.982-4.356-2.346-6.125-4.094
			c-1.77-1.747-3.169-3.79-4.193-6.127c-1.029-2.338-1.541-4.86-1.541-7.568c0-2.534,0.468-4.98,1.41-7.34
			c0.937-2.36,2.261-4.435,3.964-6.227c1.704-1.79,3.723-3.232,6.059-4.324c2.337-1.091,4.884-1.637,7.637-1.637
			s5.307,0.514,7.667,1.539c2.356,1.028,4.388,2.438,6.093,4.228c1.703,1.792,3.035,3.899,3.999,6.322
			c0.959,2.426,1.44,5.014,1.44,7.765c0,0.745-0.025,1.303-0.065,1.673c-0.046,0.372-0.111,0.776-0.197,1.212h-27.259
			c0.349,2.185,1.319,3.878,2.916,5.08c1.593,1.201,3.462,1.8,5.604,1.8c1.657,0,2.99-0.327,3.997-0.983
			c1.003-0.654,1.877-1.463,2.62-2.424H305.682z"/>
		<polygon fill="#00FFFF" points="160.846,0.057 171.724,0.057 171.724,28.162 171.724,33.864 171.724,51.358 160.846,51.358 		"/>
		<polygon fill="#00FFFF" points="196.827,51.319 183.388,33.203 183.386,33.203 196.806,15.114 184.749,15.114 171.311,33.23 
			171.353,33.23 184.772,51.319 		"/>
		<polygon fill="#00FFFF" points="43.333,54.962 43.329,54.962 32.462,54.962 32.455,54.962 21.584,54.962 21.584,65.841 
			32.455,65.841 32.462,65.841 43.329,65.841 43.333,65.841 54.205,65.841 54.205,54.962 		"/>
	</g>
</g>
</svg>
